<?xml version="1.0" encoding="utf-8"?>
<!-- Svg Vector Icons : http://www.onlinewebfonts.com/icon -->
<!DOCTYPE svg PUBLIC "-//W3C//DTD SVG 1.1//EN" "http://www.w3.org/Graphics/SVG/1.1/DTD/svg11.dtd">
<svg version="1.1"
    xmlns="http://www.w3.org/2000/svg"
    xmlns:xlink="http://www.w3.org/1999/xlink" x="0px" y="0px" viewBox="0 0 256 256" enable-background="new 0 0 256 256" xml:space="preserve">
    <metadata> Svg Vector Icons : http://www.onlinewebfonts.com/icon </metadata>
    <g>
        <g>
            <path fill="#000000" d="M128,10C62.8,10,10,62.8,10,128c0,65.2,52.8,118,118,118c65.2,0,118-52.8,118-118C246,62.8,193.2,10,128,10z M62.7,202.7c-14.5,0-26.4-11.8-26.4-26.4c0-14.5,11.8-26.4,26.4-26.4c14.6,0,26.4,11.8,26.4,26.4C89.1,190.9,77.3,202.7,62.7,202.7z M159.6,182c-0.1,1.3-0.3,2.6-0.5,3.9c-1.7,7-7.8,12.2-15.3,12.2c-8.8,0-15.9-7.9-15.9-16.6c0-1.3,0.2-2.6,0.5-3.9c-0.4-30.2-24-54.8-53.8-56.9l-1.5-0.2c-0.1,0-0.1,0-0.2,0c-1.3,0-2.5-0.2-3.7-0.5c-6.4-2-11.1-7.9-11.1-15c0-8.7,7-15.7,15.6-15.7c0.1,0,0.1,0,0.2,0h0c47.4,0.5,85.7,39.1,85.7,86.6c0,1.8-0.1,3.5-0.2,5.3C159.6,181.5,159.6,181.8,159.6,182z M218.2,167.4c-2.5,10.4-5.9,24-17.1,24c-13.1,0-11.1-15.2-11.1-28.3c0-2,0.3-3.9,0.8-5.8c-0.6-45.2-39.1-89.4-83.7-92.5l-8.3-1.3C89.1,61.8,73,62.7,73,52.1c0-13,11.6-18.9,24.4-18.9c0.1,0,0.2,0,0.3,0c0,0,0,0,0,0c70.9,0.7,121.3,48.1,121.3,119.2c0,2.6-0.1,5.3-0.3,7.9c0,0.4,0.1,0.8,0.1,1.3C218.7,163.5,218.5,165.5,218.2,167.4z"/>
        </g>
    </g>
</svg>